<?xml version="1.0" standalone="no"?>
<!DOCTYPE svg PUBLIC "-//W3C//DTD SVG 20010904//EN"
 "http://www.w3.org/TR/2001/REC-SVG-20010904/DTD/svg10.dtd">
<svg version="1.0" xmlns="http://www.w3.org/2000/svg"
 width="260.000000pt" height="260.000000pt" viewBox="0 0 260.000000 260.000000"
 preserveAspectRatio="xMidYMid meet">
<metadata>
Created by potrace 1.14, written by Peter Selinger 2001-2017
</metadata>
<g transform="translate(0.000000,260.000000) scale(0.100000,-0.100000)"
fill="#000000" stroke="none">
<path d="M215 2586 c-101 -32 -184 -121 -205 -221 -7 -34 -10 -388 -8 -1095 3
-1038 3 -1045 24 -1090 28 -59 95 -127 152 -153 l47 -22 1075 0 1075 0 49 24
c63 31 116 84 147 147 l24 49 0 1075 0 1075 -24 49 c-30 61 -92 122 -151 150
-45 21 -51 21 -1105 23 -832 1 -1069 -1 -1100 -11z m1175 -386 l0 -69 38 -7
c345 -59 624 -328 686 -664 l12 -65 72 -3 72 -3 0 -89 0 -90 -70 0 c-68 0 -70
-1 -75 -27 -37 -176 -91 -298 -180 -406 -112 -136 -287 -248 -440 -282 -38 -8
-80 -18 -92 -20 -21 -5 -23 -11 -23 -75 l0 -70 -90 0 -90 0 0 70 c0 68 -1 70
-27 76 -217 47 -329 102 -456 223 -137 130 -208 267 -253 488 -4 21 -10 23
-74 23 l-70 0 0 90 0 90 70 0 c68 0 70 1 75 28 18 94 40 166 71 231 118 252
355 431 627 476 l37 6 0 69 0 70 90 0 90 0 0 -70z"/>
<path d="M1220 1944 c-82 -11 -198 -55 -272 -104 -184 -121 -290 -315 -290
-535 -1 -110 13 -176 57 -270 107 -233 328 -376 580 -378 256 -1 482 143 590
378 167 359 -39 790 -426 890 -67 18 -179 26 -239 19z m163 -309 c134 -35 231
-141 256 -281 21 -115 -20 -226 -114 -312 -155 -141 -393 -109 -513 68 -91
136 -74 314 43 433 91 92 206 124 328 92z"/>
</g>
</svg>
